<svg width="521" height="521" viewBox="0 0 521 521" fill="none" xmlns="http://www.w3.org/2000/svg">
<g filter="url(#filter0_d_3_4)">
<mask id="path-1-inside-1_3_4" fill="white">
<path fill-rule="evenodd" clip-rule="evenodd" d="M441.344 437.749C541.318 337.775 541.318 175.685 441.344 75.7103C341.37 -24.2639 179.28 -24.2639 79.3053 75.7103C-20.6689 175.685 -20.6689 337.775 79.3053 437.749C179.28 537.723 341.37 537.723 441.344 437.749ZM441.344 330.269C511.638 259.974 511.638 146.005 441.344 75.7103C371.05 5.41592 257.08 5.41593 186.786 75.7103C116.491 146.005 116.491 259.974 186.786 330.269C257.08 400.563 371.05 400.563 441.344 330.269Z"/>
</mask>
<path fill-rule="evenodd" clip-rule="evenodd" d="M441.344 437.749C541.318 337.775 541.318 175.685 441.344 75.7103C341.37 -24.2639 179.28 -24.2639 79.3053 75.7103C-20.6689 175.685 -20.6689 337.775 79.3053 437.749C179.28 537.723 341.37 537.723 441.344 437.749ZM441.344 330.269C511.638 259.974 511.638 146.005 441.344 75.7103C371.05 5.41592 257.08 5.41593 186.786 75.7103C116.491 146.005 116.491 259.974 186.786 330.269C257.08 400.563 371.05 400.563 441.344 330.269Z" fill="#FFD700"/>
<path d="M441.344 75.7103L448.415 68.6392L448.415 68.6392L441.344 75.7103ZM441.344 437.749L434.273 430.678L434.273 430.678L441.344 437.749ZM79.3053 75.7103L86.3764 82.7814L79.3053 75.7103ZM79.3053 437.749L86.3764 430.678L79.3053 437.749ZM186.786 75.7103L193.857 82.7814L186.786 75.7103ZM186.786 330.269L179.715 337.34L179.715 337.34L186.786 330.269ZM434.273 82.7814C530.342 178.85 530.342 334.609 434.273 430.678L448.415 444.82C552.295 340.941 552.295 172.519 448.415 68.6392L434.273 82.7814ZM86.3764 82.7814C182.445 -13.2876 338.204 -13.2876 434.273 82.7814L448.415 68.6392C344.536 -35.2402 176.114 -35.2402 72.2343 68.6392L86.3764 82.7814ZM86.3764 430.678C-9.69258 334.609 -9.69258 178.85 86.3764 82.7814L72.2343 68.6392C-31.6452 172.519 -31.6452 340.941 72.2343 444.82L86.3764 430.678ZM434.273 430.678C338.204 526.747 182.445 526.747 86.3764 430.678L72.2343 444.82C176.114 548.7 344.536 548.7 448.415 444.82L434.273 430.678ZM434.273 82.7814C500.662 149.171 500.662 256.809 434.273 323.198L448.415 337.34C522.615 263.14 522.615 142.839 448.415 68.6392L434.273 82.7814ZM193.857 82.7814C260.246 16.3922 367.884 16.3922 434.273 82.7814L448.415 68.6392C374.215 -5.5604 253.914 -5.56038 179.714 68.6392L193.857 82.7814ZM193.857 323.198C127.468 256.809 127.467 149.171 193.857 82.7814L179.714 68.6392C105.515 142.839 105.515 263.14 179.715 337.34L193.857 323.198ZM434.273 323.198C367.884 389.587 260.246 389.587 193.857 323.198L179.715 337.34C253.914 411.539 374.215 411.539 448.415 337.34L434.273 323.198Z" fill="black" mask="url(#path-1-inside-1_3_4)"/>
</g>
<defs>
<filter id="filter0_d_3_4" x="0.324707" y="0.729614" width="520" height="520" filterUnits="userSpaceOnUse" color-interpolation-filters="sRGB">
<feFlood flood-opacity="0" result="BackgroundImageFix"/>
<feColorMatrix in="SourceAlpha" type="matrix" values="0 0 0 0 0 0 0 0 0 0 0 0 0 0 0 0 0 0 127 0" result="hardAlpha"/>
<feOffset dy="4"/>
<feGaussianBlur stdDeviation="2"/>
<feComposite in2="hardAlpha" operator="out"/>
<feColorMatrix type="matrix" values="0 0 0 0 0 0 0 0 0 0 0 0 0 0 0 0 0 0 0.25 0"/>
<feBlend mode="normal" in2="BackgroundImageFix" result="effect1_dropShadow_3_4"/>
<feBlend mode="normal" in="SourceGraphic" in2="effect1_dropShadow_3_4" result="shape"/>
</filter>
</defs>
</svg>
